<?xml version="1.0" standalone="no"?>
<svg xmlns:xlink="http://www.w3.org/1999/xlink" id="wave" style="transform:rotate(180deg); transition: 0.3s" viewBox="0 0 1440 490" version="1.1" xmlns="http://www.w3.org/2000/svg"><defs><linearGradient id="sw-gradient-0" x1="0" x2="0" y1="1" y2="0"><stop stop-color="rgba(25.94, 30.057, 212.196, 1)" offset="0%"/><stop stop-color="rgba(48.983, 206.638, 230.411, 1)" offset="100%"/></linearGradient></defs><path style="transform:translate(0, 0px); opacity:1" fill="url(#sw-gradient-0)" d="M0,98L16,106.2C32,114,64,131,96,163.3C128,196,160,245,192,285.8C224,327,256,359,288,383.8C320,408,352,425,384,375.7C416,327,448,212,480,147C512,82,544,65,576,81.7C608,98,640,147,672,196C704,245,736,294,768,318.5C800,343,832,343,864,359.3C896,376,928,408,960,408.3C992,408,1024,376,1056,318.5C1088,261,1120,180,1152,187.8C1184,196,1216,294,1248,318.5C1280,343,1312,294,1344,285.8C1376,278,1408,310,1440,310.3C1472,310,1504,278,1536,245C1568,212,1600,180,1632,212.3C1664,245,1696,343,1728,392C1760,441,1792,441,1824,375.7C1856,310,1888,180,1920,130.7C1952,82,1984,114,2016,147C2048,180,2080,212,2112,220.5C2144,229,2176,212,2208,204.2C2240,196,2272,196,2288,196L2304,196L2304,490L2288,490C2272,490,2240,490,2208,490C2176,490,2144,490,2112,490C2080,490,2048,490,2016,490C1984,490,1952,490,1920,490C1888,490,1856,490,1824,490C1792,490,1760,490,1728,490C1696,490,1664,490,1632,490C1600,490,1568,490,1536,490C1504,490,1472,490,1440,490C1408,490,1376,490,1344,490C1312,490,1280,490,1248,490C1216,490,1184,490,1152,490C1120,490,1088,490,1056,490C1024,490,992,490,960,490C928,490,896,490,864,490C832,490,800,490,768,490C736,490,704,490,672,490C640,490,608,490,576,490C544,490,512,490,480,490C448,490,416,490,384,490C352,490,320,490,288,490C256,490,224,490,192,490C160,490,128,490,96,490C64,490,32,490,16,490L0,490Z"/><defs><linearGradient id="sw-gradient-1" x1="0" x2="0" y1="1" y2="0"><stop stop-color="rgba(0, 255, 254.136, 1)" offset="0%"/><stop stop-color="rgba(51.926, 178.045, 53.706, 1)" offset="100%"/></linearGradient></defs><path style="transform:translate(0, 50px); opacity:0.9" fill="url(#sw-gradient-1)" d="M0,0L16,8.2C32,16,64,33,96,40.8C128,49,160,49,192,81.7C224,114,256,180,288,228.7C320,278,352,310,384,334.8C416,359,448,376,480,343C512,310,544,229,576,171.5C608,114,640,82,672,65.3C704,49,736,49,768,89.8C800,131,832,212,864,253.2C896,294,928,294,960,294C992,294,1024,294,1056,318.5C1088,343,1120,392,1152,416.5C1184,441,1216,441,1248,432.8C1280,425,1312,408,1344,334.8C1376,261,1408,131,1440,89.8C1472,49,1504,98,1536,98C1568,98,1600,49,1632,57.2C1664,65,1696,131,1728,171.5C1760,212,1792,229,1824,236.8C1856,245,1888,245,1920,204.2C1952,163,1984,82,2016,73.5C2048,65,2080,131,2112,138.8C2144,147,2176,98,2208,89.8C2240,82,2272,114,2288,130.7L2304,147L2304,490L2288,490C2272,490,2240,490,2208,490C2176,490,2144,490,2112,490C2080,490,2048,490,2016,490C1984,490,1952,490,1920,490C1888,490,1856,490,1824,490C1792,490,1760,490,1728,490C1696,490,1664,490,1632,490C1600,490,1568,490,1536,490C1504,490,1472,490,1440,490C1408,490,1376,490,1344,490C1312,490,1280,490,1248,490C1216,490,1184,490,1152,490C1120,490,1088,490,1056,490C1024,490,992,490,960,490C928,490,896,490,864,490C832,490,800,490,768,490C736,490,704,490,672,490C640,490,608,490,576,490C544,490,512,490,480,490C448,490,416,490,384,490C352,490,320,490,288,490C256,490,224,490,192,490C160,490,128,490,96,490C64,490,32,490,16,490L0,490Z"/></svg>